HIERARCHY
ROOT Hips
{
	OFFSET 0.00000 0.00000 0.00000
	CHANNELS 6 Xposition Yposition Zposition Zrotation Yrotation Xrotation 
	JOINT LHipJoint
	{
		OFFSET 0 0 0
		CHANNELS 3 Zrotation Yrotation Xrotation
		JOINT LeftUpLeg
		{
			OFFSET 1.58895 -1.83665 0.71753
			CHANNELS 3 Zrotation Yrotation Xrotation
			JOINT LeftLeg
			{
				OFFSET 2.50528 -6.88321 0.00000
				CHANNELS 3 Zrotation Yrotation Xrotation
				JOINT LeftFoot
				{
					OFFSET 2.63244 -7.23257 0.00000
					CHANNELS 3 Zrotation Yrotation Xrotation
					JOINT LeftToeBase
					{
						OFFSET 0.23691 -0.65090 1.72750
						CHANNELS 3 Zrotation Yrotation Xrotation
						End Site
						{
							OFFSET 0.00000 -0.00000 0.92561
						}
					}
				}
			}
		}
	}
	JOINT RHipJoint
	{
		OFFSET 0 0 0
		CHANNELS 3 Zrotation Yrotation Xrotation
		JOINT RightUpLeg
		{
			OFFSET -1.51435 -1.83665 0.71753
			CHANNELS 3 Zrotation Yrotation Xrotation
			JOINT RightLeg
			{
				OFFSET -2.54551 -6.99375 0.00000
				CHANNELS 3 Zrotation Yrotation Xrotation
				JOINT RightFoot
				{
					OFFSET -2.66027 -7.30903 0.00000
					CHANNELS 3 Zrotation Yrotation Xrotation
					JOINT RightToeBase
					{
						OFFSET -0.22981 -0.63138 2.03959
						CHANNELS 3 Zrotation Yrotation Xrotation
						End Site
						{
							OFFSET -0.00000 -0.00000 1.07060
						}
					}
				}
			}
		}
	}
	JOINT LowerBack
	{
		OFFSET 0 0 0
		CHANNELS 3 Zrotation Yrotation Xrotation
		JOINT Spine
		{
			OFFSET -0.02651 1.86275 -0.11152
			CHANNELS 3 Zrotation Yrotation Xrotation
			JOINT Spine1
			{
				OFFSET 0.01019 1.86224 0.04087
				CHANNELS 3 Zrotation Yrotation Xrotation
				JOINT Neck
				{
					OFFSET 0 0 0
					CHANNELS 3 Zrotation Yrotation Xrotation
					JOINT Neck1
					{
						OFFSET -0.01926 1.80512 0.08867
						CHANNELS 3 Zrotation Yrotation Xrotation
						JOINT Head
						{
							OFFSET 0.05516 1.76451 -0.38475
							CHANNELS 3 Zrotation Yrotation Xrotation
							End Site
							{
								OFFSET 0.01592 1.82587 -0.14001
							}
						}
					}
				}
				JOINT LeftShoulder
				{
					OFFSET 0 0 0
					CHANNELS 3 Zrotation Yrotation Xrotation
					JOINT LeftArm
					{
						OFFSET 3.47116 1.51376 0.14491
						CHANNELS 3 Zrotation Yrotation Xrotation
						JOINT LeftForeArm
						{
							OFFSET 4.78095 -0.00000 0.00000
							CHANNELS 3 Zrotation Yrotation Xrotation
							JOINT LeftHand
							{
								OFFSET 3.58615 -0.00000 -0.00000
								CHANNELS 3 Zrotation Yrotation Xrotation
								JOINT LeftFingerBase
								{
									OFFSET 0 0 0
									CHANNELS 3 Zrotation Yrotation Xrotation
									JOINT LeftHandIndex1
									{
										OFFSET 0.65981 -0.00000 0.00000
										CHANNELS 3 Zrotation Yrotation Xrotation
										End Site
										{
											OFFSET 0.53196 -0.00000 0.00000
										}
									}
								}
								JOINT LThumb
								{
									OFFSET 0 0 0
									CHANNELS 3 Zrotation Yrotation Xrotation
									End Site
									{
										OFFSET 0.54008 -0.00000 0.54008
									}
								}
							}
						}
					}
				}
				JOINT RightShoulder
				{
					OFFSET 0 0 0
					CHANNELS 3 Zrotation Yrotation Xrotation
					JOINT RightArm
					{
						OFFSET -3.31725 1.61216 0.35156
						CHANNELS 3 Zrotation Yrotation Xrotation
						JOINT RightForeArm
						{
							OFFSET -4.48913 -0.00000 0.00000
							CHANNELS 3 Zrotation Yrotation Xrotation
							JOINT RightHand
							{
								OFFSET -3.70510 -0.00000 0.00000
								CHANNELS 3 Zrotation Yrotation Xrotation
								JOINT RightFingerBase
								{
									OFFSET 0 0 0
									CHANNELS 3 Zrotation Yrotation Xrotation
									JOINT RightHandIndex1
									{
										OFFSET -0.44914 -0.00000 0.00000
										CHANNELS 3 Zrotation Yrotation Xrotation
										End Site
										{
											OFFSET -0.36211 -0.00000 0.00000
										}
									}
								}
								JOINT RThumb
								{
									OFFSET 0 0 0
									CHANNELS 3 Zrotation Yrotation Xrotation
									End Site
									{
										OFFSET -0.36763 -0.00000 0.36763
									}
								}
							}
						}
					}
				}
			}
		}
	}
}
MOTION
Frames: 16
Frame Time: .0083333
-0.9526 18.6829 5.8868 0 0 0 0 0 0 -21 0 0 0 0 0 0 0 0 0 0 0 0 0 0 21 0 0 0 0 0 0 0 0 0 0 0 0 0 0 0 0 0 0 0 0 0 0 -16 0 0 21 0 0 11 0 0 0 -8 0 0 0 0 0 0 0 0 0 0 0 0 0 0 0 0 0 0 0 0 8 0 0 0 0 0 0 0 0 0 0 0 0 0 0 0 0 0
-0.9526 18.6829 5.8868 -7.8617 -0.4107 2.5494 0.0000 0.0000 0.0000 -4.7224 -6.0401 -5.9618 1.7848 8.4027 23.9440 1.5776 1.9217 -24.4928 8.6914 -16.6050 -55.0168 0.0000 0.0000 0.0000 23.1019 -3.0881 5.7659 0.0000 -0.0000 0.0000 -0.9043 -3.4923 -19.5507 -0.0117 0.6996 -1.9227 7.3025 0.5840 2.7545 0.2226 1.0807 -1.4602 -3.9211 0.3960 -2.9342 0.4344 -1.4948 -6.4613 2.7628 -2.9010 26.7626 0.5930 -1.0218 9.5188 -0.0000 -0.0000 0.0000 -88.6808 12.2788 25.9381 21.8690 -32.8287 -6.5147 -0.0000 -0.0000 9.3573 3.8601 -27.1872 -1.7658 -7.1250 0.0000 -0.0000 -15.5941 3.5812 15.1724 -0.0000 -0.0000 0.0000 92.4495 -17.7906 22.6328 -23.8087 34.9613 -7.5967 0.0000 0.0000 24.6810 -1.2381 -34.2990 0.6978 7.1250 -0.0000 -0.0000 36.5795 -60.3875 -14.8825
-0.9512 18.6840 5.8868 -7.8583 -0.3960 2.5744 0.0000 0.0000 0.0000 -4.7249 -6.0355 -6.0143 1.7885 8.4110 23.9695 1.5768 1.8974 -24.4772 8.6843 -16.6002 -54.9916 0.0000 0.0000 0.0000 23.0921 -3.0905 5.7332 0.0000 -0.0000 0.0000 -0.9050 -3.4790 -19.5505 -0.0100 0.6446 -1.7713 7.3016 0.5891 2.7693 0.1948 1.0869 -1.4362 -3.9498 0.4001 -2.9164 0.4536 -1.4990 -6.4135 2.8051 -2.9173 26.6944 0.6030 -1.0246 9.4861 0.0000 0.0000 0.0000 -88.6273 12.2495 25.9283 21.8623 -32.8211 -6.5111 -0.0000 -0.0000 9.3231 3.9060 -27.2010 -1.7877 -7.1250 0.0000 -0.0000 -15.5674 3.5639 15.1495 0.0000 0.0000 0.0000 92.4213 -17.6856 22.8028 -23.7210 34.8678 -7.5464 0.0000 0.0000 24.4914 -1.2409 -34.3772 0.7007 7.1250 -0.0000 -0.0000 36.6602 -60.4507 -14.9767
-0.9501 18.6845 5.8873 -7.8857 -0.3786 2.6025 0.0000 0.0000 0.0000 -4.6969 -6.0607 -6.0605 1.7932 8.4213 24.0013 1.5757 1.8919 -24.4665 8.6709 -16.5912 -54.9450 0.0000 0.0000 0.0000 23.1192 -3.0929 5.6969 0.0000 -0.0000 0.0000 -0.9018 -3.4976 -19.5295 -0.0122 0.7119 -1.9564 7.3558 0.6067 2.7860 0.1539 1.1119 -1.4123 -4.0240 0.4125 -2.8963 0.5507 -1.5247 -6.4039 2.7190 -2.9443 26.6288 0.5538 -1.0376 9.4585 -0.0000 0.0000 0.0000 -88.5651 12.2007 25.9073 21.8453 -32.8017 -6.5018 -0.0000 -0.0000 9.3508 3.9308 -27.1041 -1.7932 -7.1250 0.0000 -0.0000 -15.5526 3.6550 15.1068 -0.0000 0.0000 0.0000 92.3209 -17.5455 23.2224 -23.5516 34.6865 -7.4499 0.0000 0.0000 24.0570 -1.5038 -34.3921 0.8495 7.1250 -0.0000 -0.0000 36.4203 -60.5255 -14.9283
-0.9501 18.6846 5.8865 -7.9272 -0.3399 2.6503 0.0000 0.0000 0.0000 -4.6317 -6.0194 -6.1697 1.7971 8.4300 24.0279 1.5691 1.8615 -24.4042 8.6927 -16.6058 -55.0211 0.0000 0.0000 0.0000 23.1702 -3.1049 5.6301 0.0000 0.0000 -0.0000 -0.8983 -3.5268 -19.5121 -0.0153 0.7999 -2.1983 7.3661 0.6228 2.8131 0.1447 1.1357 -1.4084 -4.0410 0.4238 -2.9043 0.6508 -1.5545 -6.4166 2.5652 -2.9620 26.6032 0.4816 -1.0523 9.4480 -0.0000 0.0000 0.0000 -88.5220 12.2021 25.9486 21.8615 -32.8202 -6.5106 -0.0000 -0.0000 9.3120 3.9355 -26.9249 -1.7843 -7.1250 0.0000 -0.0000 -15.5494 3.8271 15.0521 -0.0000 0.0000 0.0000 92.2525 -17.4893 23.4551 -23.4741 34.6031 -7.4058 0.0000 0.0000 23.8050 -1.6559 -34.3654 0.9349 7.1250 -0.0000 -0.0000 36.2437 -60.5406 -14.8575
-0.9503 18.6855 5.8841 -7.9567 -0.2920 2.6879 0.0000 0.0000 0.0000 -4.5790 -6.0054 -6.2660 1.8014 8.4395 24.0572 1.5651 1.8302 -24.3606 8.7053 -16.6143 -55.0652 0.0000 0.0000 0.0000 23.2066 -3.1312 5.5726 0.0000 -0.0000 0.0000 -0.8991 -3.5133 -19.5117 -0.0140 0.7643 -2.1004 7.3158 0.6374 2.8544 0.1613 1.1562 -1.3879 -3.9970 0.4357 -2.9047 0.6618 -1.5672 -6.4627 2.5545 -2.9793 26.6104 0.4739 -1.0595 9.4592 0.0000 0.0000 0.0000 -88.4847 12.1813 26.0641 21.8895 -32.8519 -6.5258 -0.0000 -0.0000 9.2434 3.9522 -26.8972 -1.7902 -7.1250 0.0000 -0.0000 -15.5396 3.8523 15.0343 0.0000 0.0000 0.0000 92.2374 -17.4691 23.4443 -23.5068 34.6384 -7.4244 0.0000 0.0000 23.8154 -1.6131 -34.2577 0.9082 7.1250 -0.0000 -0.0000 36.1707 -60.4438 -14.7384
-0.9495 18.6869 5.8810 -7.9706 -0.2626 2.7075 0.0000 0.0000 0.0000 -4.5594 -6.0534 -6.3136 1.8057 8.4491 24.0867 1.5669 1.8134 -24.3675 8.6931 -16.6061 -55.0227 0.0000 0.0000 0.0000 23.2192 -3.1480 5.5379 0.0000 0.0000 -0.0000 -0.9012 -3.4800 -19.5139 -0.0095 0.6286 -1.7273 7.2714 0.6548 2.9225 0.1718 1.1824 -1.3561 -3.9634 0.4505 -2.9077 0.6168 -1.5800 -6.4913 2.6026 -3.0016 26.5957 0.4958 -1.0690 9.4612 0.0000 0.0000 0.0000 -88.4592 12.1285 26.1365 21.8906 -32.8532 -6.5264 -0.0000 -0.0000 9.2200 3.9625 -27.0702 -1.8056 -7.1250 0.0000 -0.0000 -15.5340 3.6850 15.0784 0.0000 0.0000 0.0000 92.2232 -17.4644 23.4420 -23.5723 34.7087 -7.4616 0.0000 0.0000 23.8201 -1.5940 -34.1497 0.8950 7.1250 -0.0000 -0.0000 36.0753 -60.3526 -14.6139
-0.9485 18.6885 5.8785 -7.9997 -0.2528 2.7577 0.0000 0.0000 0.0000 -4.5252 -6.1036 -6.3864 1.8095 8.4574 24.1124 1.5676 1.8221 -24.3763 8.6952 -16.6076 -55.0301 0.0000 0.0000 0.0000 23.2486 -3.1304 5.4731 0.0000 -0.0000 0.0000 -0.9015 -3.4655 -19.5091 -0.0060 0.5007 -1.3757 7.2792 0.6688 2.9650 0.1620 1.2044 -1.3481 -3.9797 0.4609 -2.9204 0.6526 -1.5920 -6.4886 2.5267 -3.0048 26.6088 0.4632 -1.0746 9.4635 0.0000 0.0000 0.0000 -88.4172 12.1158 26.1849 21.8984 -32.8620 -6.5306 -0.0000 -0.0000 9.1194 3.9246 -27.1154 -1.7910 -7.1250 0.0000 -0.0000 -15.5563 3.6448 15.1137 0.0000 0.0000 0.0000 92.2450 -17.4759 23.4566 -23.6157 34.7552 -7.4863 0.0000 0.0000 23.8296 -1.6970 -34.1075 0.9518 7.1250 -0.0000 -0.0000 35.9305 -60.3431 -14.5377
-0.9474 18.6895 5.8769 -8.0486 -0.2304 2.8161 0.0000 0.0000 0.0000 -4.4644 -6.1192 -6.4769 1.8124 8.4639 24.1322 1.5633 1.8336 -24.3489 8.7073 -16.6156 -55.0722 0.0000 0.0000 0.0000 23.3023 -3.1214 5.3994 0.0000 -0.0000 0.0000 -0.9017 -3.4675 -19.5118 -0.0057 0.4880 -1.3408 7.3167 0.6752 3.0008 0.1497 1.2175 -1.3539 -4.0149 0.4656 -2.9443 0.6934 -1.5997 -6.4392 2.4728 -3.0064 26.5938 0.4378 -1.0777 9.4472 0.0000 0.0000 0.0000 -88.3767 12.1362 26.2507 21.9307 -32.8986 -6.5482 -0.0000 -0.0000 8.9731 3.9213 -27.0392 -1.7848 -7.1250 0.0000 -0.0000 -15.5580 3.7184 15.0935 0.0000 0.0000 0.0000 92.2866 -17.4550 23.4359 -23.6034 34.7421 -7.4794 0.0000 0.0000 23.8531 -1.8103 -34.0347 1.0134 7.1250 -0.0000 -0.0000 35.7439 -60.3114 -14.4228
-0.9454 18.6896 5.8754 -8.0645 -0.1985 2.8476 0.0000 0.0000 0.0000 -4.4458 -6.1224 -6.5348 1.8143 8.4681 24.1452 1.5594 1.8342 -24.3193 8.7082 -16.6163 -55.0755 0.0000 0.0000 0.0000 23.3184 -3.1349 5.3509 0.0000 0.0000 -0.0000 -0.9017 -3.4848 -19.5215 -0.0070 0.5415 -1.4880 7.3258 0.6785 3.0619 0.1359 1.2269 -1.3478 -4.0359 0.4691 -2.9709 0.5988 -1.6063 -6.3957 2.5876 -3.0265 26.5439 0.4921 -1.0854 9.4248 0.0000 -0.0000 0.0000 -88.3751 12.1410 26.2484 21.9481 -32.9183 -6.5576 -0.0000 -0.0000 8.9596 3.9848 -27.0292 -1.8132 -7.1250 0.0000 -0.0000 -15.5209 3.7225 15.0534 0.0000 -0.0000 0.0000 92.3026 -17.4213 23.4059 -23.5820 34.7191 -7.4671 0.0000 0.0000 23.8376 -1.8724 -33.8839 1.0441 7.1250 -0.0000 -0.0000 35.5262 -60.2042 -14.2292
-0.9438 18.6899 5.8744 -8.0363 -0.1656 2.8778 0.0000 0.0000 0.0000 -4.4824 -6.1772 -6.5676 1.8153 8.4703 24.1520 1.5598 1.8564 -24.3319 8.7060 -16.6147 -55.0675 0.0000 0.0000 0.0000 23.2865 -3.1519 5.3027 0.0000 0.0000 -0.0000 -0.9002 -3.5037 -19.5173 -0.0084 0.5906 -1.6229 7.2925 0.6701 3.1089 0.1018 1.2170 -1.3389 -4.0532 0.4640 -2.9891 0.5161 -1.5869 -6.4151 2.6972 -3.0155 26.5967 0.5452 -1.0758 9.4502 -0.0000 0.0000 0.0000 -88.3618 12.1335 26.1781 21.9388 -32.9078 -6.5526 -0.0000 -0.0000 9.0140 3.9945 -27.0157 -1.8168 -7.1250 0.0000 -0.0000 -15.5153 3.7347 15.0439 -0.0000 0.0000 0.0000 92.3043 -17.4340 23.4889 -23.6174 34.7570 -7.4873 0.0000 0.0000 23.7628 -1.9431 -33.8824 1.0836 7.1250 -0.0000 -0.0000 35.4557 -60.2198 -14.2099
-0.9428 18.6915 5.8734 -7.9916 -0.1279 2.9066 0.0000 0.0000 0.0000 -4.5340 -6.2435 -6.5971 1.8154 8.4706 24.1528 1.5609 1.8763 -24.3487 8.7068 -16.6153 -55.0704 0.0000 0.0000 0.0000 23.2346 -3.1768 5.2590 0.0000 -0.0000 0.0000 -0.8997 -3.4965 -19.5087 -0.0078 0.5698 -1.5656 7.2326 0.6469 3.1511 0.0551 1.1852 -1.3286 -4.0673 0.4486 -3.0062 0.5686 -1.5545 -6.4426 2.6730 -2.9756 26.6841 0.5316 -1.0531 9.4850 0.0000 -0.0000 0.0000 -88.3160 12.1257 26.1062 21.9325 -32.9006 -6.5491 -0.0000 -0.0000 9.0050 3.9045 -26.8964 -1.7685 -7.1250 0.0000 -0.0000 -15.5674 3.8572 15.0620 0.0000 -0.0000 0.0000 92.3136 -17.4312 23.6554 -23.6638 34.8067 -7.5138 0.0000 0.0000 23.6548 -1.9312 -34.1136 1.0834 7.1250 -0.0000 -0.0000 35.7085 -60.4038 -14.4859
-0.9419 18.6931 5.8716 -7.9754 -0.0969 2.9357 0.0000 0.0000 0.0000 -4.5506 -6.2923 -6.6308 1.8150 8.4696 24.1497 1.5601 1.8847 -24.3461 8.7032 -16.6129 -55.0579 0.0000 0.0000 0.0000 23.2145 -3.1928 5.2144 0.0000 0.0000 -0.0000 -0.8995 -3.4879 -19.5017 -0.0059 0.4972 -1.3662 7.1757 0.6292 3.2090 0.0434 1.1630 -1.3142 -4.0472 0.4381 -3.0272 0.5267 -1.5473 -6.4450 2.7152 -2.9701 26.7042 0.5540 -1.0499 9.4939 -0.0000 -0.0000 0.0000 -88.3112 12.1105 26.0722 21.9431 -32.9127 -6.5549 -0.0000 -0.0000 8.9295 3.8306 -26.8878 -1.7344 -7.1250 0.0000 -0.0000 -15.6106 3.8718 15.1028 -0.0000 -0.0000 0.0000 92.2845 -17.3831 23.7621 -23.6795 34.8235 -7.5227 0.0000 0.0000 23.5952 -1.7578 -34.2448 0.9894 7.1250 -0.0000 -0.0000 36.0161 -60.4680 -14.6863
-0.9411 18.6937 5.8693 -7.9890 -0.0673 2.9605 0.0000 0.0000 0.0000 -4.5336 -6.3232 -6.6648 1.8145 8.4686 24.1465 1.5566 1.8910 -24.3219 8.6986 -16.6098 -55.0420 0.0000 0.0000 0.0000 23.2302 -3.2067 5.1725 0.0000 0.0000 -0.0000 -0.8979 -3.4872 -19.4862 -0.0052 0.4647 -1.2770 7.1208 0.6246 3.2905 0.0677 1.1617 -1.3115 -3.9925 0.4373 -3.0718 0.3356 -1.5589 -6.3781 2.8847 -2.9960 26.6691 0.6434 -1.0641 9.4744 -0.0000 0.0000 0.0000 -88.3488 12.1221 26.0985 21.9802 -32.9547 -6.5751 -0.0000 -0.0000 8.8315 3.7814 -26.9306 -1.7146 -7.1250 0.0000 -0.0000 -15.6394 3.8348 15.1441 -0.0000 0.0000 0.0000 92.2267 -17.3692 23.7844 -23.6922 34.8370 -7.5300 0.0000 0.0000 23.5529 -1.6681 -34.1286 0.9361 7.1250 -0.0000 -0.0000 35.9809 -60.3532 -14.5701
-0.9404 18.6939 5.8665 -7.9774 -0.0298 2.9769 0.0000 0.0000 0.0000 -4.5450 -6.3495 -6.6953 1.8140 8.4673 24.1428 1.5530 1.8911 -24.2949 8.6990 -16.6101 -55.0432 0.0000 0.0000 0.0000 23.2181 -3.2343 5.1396 0.0000 -0.0000 0.0000 -0.8960 -3.4895 -19.4689 -0.0062 0.5082 -1.3964 7.0454 0.6203 3.3857 0.0648 1.1606 -1.3177 -3.9549 0.4358 -3.1333 0.2850 -1.5698 -6.3362 2.9134 -3.0100 26.6879 0.6611 -1.0727 9.4746 0.0000 -0.0000 0.0000 -88.3595 12.1476 26.1201 22.0180 -32.9974 -6.5957 -0.0000 -0.0000 8.7440 3.7492 -26.6918 -1.6860 -7.1250 0.0000 -0.0000 -15.6580 4.0674 15.0936 0.0000 -0.0000 0.0000 92.2437 -17.4003 23.7544 -23.7156 34.8621 -7.5434 0.0000 0.0000 23.5214 -1.7611 -34.0137 0.9853 7.1250 -0.0000 -0.0000 35.7699 -60.2828 -14.4102
-0.9401 18.6950 5.8633 -7.9516 -0.0046 3.0113 0.0000 0.0000 0.0000 -4.5675 -6.3698 -6.7468 1.8130 8.4651 24.1360 1.5498 1.8956 -24.2724 8.7008 -16.6113 -55.0494 0.0000 0.0000 0.0000 23.1932 -3.2425 5.0901 0.0000 -0.0000 0.0000 -0.8953 -3.4995 -19.4671 -0.0073 0.5499 -1.5111 6.9828 0.6239 3.4686 0.0267 1.1678 -1.3096 -3.9613 0.4392 -3.1709 0.3395 -1.5908 -6.4489 2.8478 -3.0381 26.8163 0.6255 -1.0841 9.5406 0.0000 0.0000 0.0000 -88.3290 12.1139 26.1360 22.0315 -33.0126 -6.6030 -0.0000 -0.0000 8.6592 4.1609 -26.4746 -1.8576 -7.1250 0.0000 -0.0000 -15.4164 4.2415 14.7901 0.0000 0.0000 0.0000 92.3255 -17.3874 23.6938 -23.7422 34.8904 -7.5586 0.0000 0.0000 23.5351 -1.8242 -34.0094 1.0206 7.1250 -0.0000 -0.0000 35.7039 -60.2943 -14.3893
